<svg xmlns="http://www.w3.org/2000/svg" viewBox="0 0 496.32 153.29"><defs><style>.cls-1{fill:#231f20;}.cls-2{fill:#00b6ff;}.cls-3{fill:#de995e;}.cls-4,.cls-5{fill:none;}.cls-5{stroke:#fff;stroke-miterlimit:10;stroke-width:0.82px;}</style></defs><title>Dvvvvv</title><g id="Layer_2" data-name="Layer 2"><g id="Layer_1-2" data-name="Layer 1"><path class="cls-1" d="M0,34.47H21.89c14.34,0,21.37,8,21.37,22.55v46.13c0,14.59-7,22.54-21.37,22.54H0Zm21.63,78.19c4.56,0,7.3-2.35,7.3-8.86V56.37c0-6.52-2.74-8.87-7.3-8.87h-7.3v65.16Z"/><path class="cls-1" d="M60.2,34.47H99.29v13H74.53V71.61H94.21v13H74.53v28H99.29v13H60.2Z"/><path class="cls-1" d="M175.52,35.17h14.33v78.18h23.59v13H175.52Z"/><path class="cls-1" d="M287.83,34.47H302.3l9.38,70.76h.26l9.38-70.76h13.17l-13.82,91.22h-19Z"/><path class="cls-1" d="M401.07,34.47h21.24c14.85,0,21.24,6.91,21.24,21v5.61c0,9.38-3,15.37-9.39,18v.26c7.17,2.21,9.52,9,9.52,19.29v16c0,4.43.13,7.69,1.56,11.08H430.65c-.79-2.35-1.31-3.78-1.31-11.21V97.8c0-8.47-2.47-11.2-9-11.2h-5v39.09H401.07Zm19.54,39.1c5.34,0,8.6-2.35,8.6-9.65v-7c0-6.52-2.21-9.39-7.29-9.39H415.4V73.57Z"/><path class="cls-1" d="M464.66,86.86,447.33,34.47h15.24L472.35,68h.26l9.77-33.49h13.94L479,86.86v38.83H464.66Z"/><polygon class="cls-2" points="158.48 125.33 141.57 53.16 124.95 53.16 111.4 125.33 128.58 125.33 128.58 94.4 140.11 94.4 140.11 125.33 158.48 125.33"/><circle class="cls-2" cx="132.56" cy="38.46" r="10.27"/><polygon class="cls-2" points="389.84 125.33 372.94 53.16 356.31 53.16 342.76 125.33 359.94 125.33 359.94 94.4 371.47 94.4 371.47 125.33 389.84 125.33"/><circle class="cls-2" cx="363.93" cy="38.46" r="10.27"/><rect class="cls-3" x="223.58" y="58.95" width="50.08" height="36.4"/><path class="cls-1" d="M244.15,120a72,72,0,0,1-109.21,14.43l1.82-2.08a69.23,69.23,0,0,0,105.29-14.21Z"/><path class="cls-1" d="M362.22,14.59l-2,2A69.21,69.21,0,0,0,255.49,44c-.63-.8-1.29-1.58-2-2.35a72,72,0,0,1,108.7-27Z"/><line class="cls-4" x1="145.96" y1="131.24" x2="144.95" y2="132.39"/><line class="cls-4" x1="143.13" y1="134.47" x2="142.45" y2="135.24"/><polygon class="cls-1" points="248.62 134.13 246.65 131.82 246.01 122.17 245.36 112.53 237.33 117.91 229.29 123.29 226.27 123.14 236.61 116.21 246.96 109.28 247.79 121.71 248.62 134.13"/><polygon class="cls-1" points="364.35 3.36 363.17 5.64 364.33 13.73 365.48 21.82 358.07 18.9 350.65 15.98 348.24 16.68 357.79 20.44 367.33 24.2 365.84 13.78 364.35 3.36"/><rect class="cls-1" x="243.45" y="58.95" width="11.92" height="15.43"/><line class="cls-5" x1="246.81" y1="58.95" x2="246.81" y2="74.38"/><line class="cls-5" x1="251.86" y1="58.95" x2="251.86" y2="74.38"/></g></g></svg>